<?xml version="1.0" encoding="utf-8"?>

<!DOCTYPE svg PUBLIC "-//W3C//DTD SVG 1.1//EN" "http://www.w3.org/Graphics/SVG/1.1/DTD/svg11.dtd">
<!-- Uploaded to: SVG Repo, www.svgrepo.com, Generator: SVG Repo Mixer Tools -->
<svg height="800px" width="800px" version="1.1" id="_x32_" xmlns="http://www.w3.org/2000/svg" xmlns:xlink="http://www.w3.org/1999/xlink" 
	 viewBox="0 0 512 512"  xml:space="preserve">
<style type="text/css">
	.st0{fill:#000000;}
</style>
<g>
	<path class="st0" d="M459.451,436.08c-0.976-34.436-4.08-59.036-8.515-77.71c-4.039-17.005-9.224-29.244-14.578-39.395
		c-4.015-7.627-8.047-14.046-11.732-20.528c-5.515-9.748-10.369-19.666-14.086-35.17c-3.7-15.472-6.152-36.582-6.144-67.858
		c0-4.547,0.049-9.304,0.154-14.279c0.024-0.992,0.04-1.975,0.04-2.951c-0.008-24.536-6.482-47.918-16.754-69.09
		c-15.424-31.76-39.282-58.682-63.592-77.904c-12.167-9.611-24.454-17.303-36.025-22.673C276.633,3.177,265.82,0.032,256,0
		c-13.054,0.081-28.01,5.531-43.999,14.642c-23.874,13.755-49.7,36.202-69.889,64.414c-20.149,28.196-34.67,62.302-34.694,99.133
		c0,0.976,0.016,1.959,0.032,2.959c0.105,4.967,0.161,9.724,0.161,14.271c0,37.081-3.435,59.826-8.321,75.928
		c-3.677,12.102-8.143,20.601-13.151,29.261c-7.474,12.924-16.4,26.39-22.954,49.643c-5.58,19.714-9.579,46.344-10.676,86.386
		c-0.452,4.039-0.758,8.208-0.758,12.61c0,3.556,0.152,7.224,0.475,11.03c0.234,2.669,1.25,4.83,2.443,6.612
		c2.266,3.338,5.273,5.805,9.038,8.353c6.596,4.363,15.731,8.628,27.438,12.821C126.172,500.551,184.151,511.984,256,512
		c58.383,0,107.655-7.579,142.825-17.093c17.594-4.766,31.638-9.99,41.79-15.215c5.088-2.62,9.2-5.216,12.457-8.063
		c1.637-1.435,3.064-2.942,4.266-4.741c1.186-1.782,2.209-3.942,2.443-6.612c0.315-3.797,0.468-7.466,0.468-11.006
		C460.256,444.667,459.958,440.288,459.451,436.08z M320.349,128.7c4.983,0,9.015,4.032,9.015,9.006
		c0,4.983-4.032,9.014-9.015,9.014c-4.974,0-9.014-4.032-9.014-9.014C311.335,132.731,315.375,128.7,320.349,128.7z
		 M284.301,108.864c4.983,0,9.014,4.04,9.014,9.014c0,4.984-4.032,9.014-9.014,9.014c-4.974,0-9.014-4.031-9.014-9.014
		C275.286,112.904,279.326,108.864,284.301,108.864z M227.707,108.864c4.974,0,9.014,4.04,9.014,9.014
		c0,4.984-4.04,9.014-9.014,9.014c-4.983,0-9.014-4.031-9.014-9.014C218.693,112.904,222.725,108.864,227.707,108.864z
		 M191.658,128.7c4.974,0,9.014,4.032,9.014,9.006c0,4.983-4.04,9.014-9.014,9.014c-4.983,0-9.014-4.032-9.014-9.014
		C182.644,132.731,186.675,128.7,191.658,128.7z M181.515,181.406c3.104-5.822,7.014-9.966,12.094-13.796
		c7.563-5.725,17.915-10.369,29.833-16.916c10.168-5.595,21.415-12.73,32.631-23.446c21.406,20.359,42.749,27.801,56.883,36.67
		c7.797,4.862,13.401,9.764,17.537,17.488c3.048,5.732,5.322,13.376,6.289,24.076H175.218
		C176.194,194.783,178.467,187.139,181.515,181.406z M147.732,422.365c-7.015,0.516-18.892,1.226-31.784,1.226
		c-10.224,0-21.06-0.452-30.381-1.734c-4.7-0.612-9.022-1.516-12.594-2.572c1.629-4.015,3.54-7.7,5.749-11.038
		c10.055-15.239,26.212-24.568,43.088-30.921c8.402-3.169,16.9-5.58,24.696-7.668c2.008-0.541,3.959-1.057,5.862-1.556
		L147.732,422.365z M144.789,337.786c-4.974,0-9.006-4.032-9.006-9.014c0-4.974,4.032-9.014,9.006-9.014
		c4.984,0,9.014,4.04,9.014,9.014C153.803,333.754,149.772,337.786,144.789,337.786z M150.199,289.118
		c-4.974,0-9.014-4.032-9.014-9.014c0-4.975,4.04-9.014,9.014-9.014c4.975,0,9.014,4.039,9.014,9.014
		C159.213,285.087,155.174,289.118,150.199,289.118z M152.005,233.242c-4.983,0-9.014-4.04-9.014-9.014
		c0-4.975,4.031-9.014,9.014-9.014c4.974,0,9.006,4.04,9.006,9.014C161.011,229.203,156.98,233.242,152.005,233.242z
		 M159.213,182.769c-4.983,0-9.014-4.032-9.014-9.014c0-4.974,4.032-9.006,9.014-9.006c4.974,0,9.014,4.032,9.014,9.006
		C168.227,178.737,164.188,182.769,159.213,182.769z M170.211,345.534l6.427-75.307c4.03,10.74,9.312,22.326,16.158,34.05
		c0,13.643,0,14.9,0,23.148c0,0.959-0.379,2.338-1.863,4.314c-2.177,2.927-6.692,6.474-12.046,9.482
		C176.129,342.785,173.17,344.236,170.211,345.534z M256,429.308l-72.582-72.574c3.289-1.709,6.531-3.548,9.554-5.644
		c4.007-2.797,7.676-5.942,10.586-9.764c2.846-3.733,5.032-8.402,5.079-13.723c11.272,14.344,25.326,28.188,42.895,40.169
		l4.467,3.04l4.475-3.04c17.569-11.981,31.615-25.817,42.894-40.169c0.032,5.16,2.04,9.796,4.789,13.505
		c4.226,5.66,10.079,9.853,16.456,13.514c1.306,0.741,2.702,1.346,4.048,2.024L256,429.308z M327.542,337.753
		c-2.983-2.08-5.274-4.225-6.604-6.047c-1.346-1.863-1.717-3.153-1.726-4.282c0-8.248,0-9.506,0-23.148
		c6.837-11.723,12.127-23.302,16.158-34.041l6.41,75.178C336.507,343.091,331.452,340.494,327.542,337.753z M343.78,173.754
		c0-4.974,4.04-9.006,9.014-9.006c4.983,0,9.014,4.032,9.014,9.006c0,4.983-4.032,9.014-9.014,9.014
		C347.82,182.769,343.78,178.737,343.78,173.754z M360.003,215.214c4.983,0,9.014,4.04,9.014,9.014c0,4.974-4.031,9.014-9.014,9.014
		c-4.975,0-9.006-4.04-9.006-9.014C350.996,219.254,355.028,215.214,360.003,215.214z M352.795,280.104
		c0-4.975,4.04-9.014,9.014-9.014c4.974,0,9.014,4.039,9.014,9.014c0,4.983-4.04,9.014-9.014,9.014
		C356.835,289.118,352.795,285.087,352.795,280.104z M367.219,319.757c4.974,0,9.006,4.04,9.006,9.014
		c0,4.983-4.032,9.014-9.006,9.014c-4.983,0-9.014-4.032-9.014-9.014C358.205,323.797,362.237,319.757,367.219,319.757z
		 M426.441,421.857c-9.32,1.282-20.165,1.734-30.388,1.734c-10.224,0-19.851-0.452-26.89-0.895
		c-1.822-0.105-3.443-0.226-4.886-0.331l-4.619-54.07c4.345,1.178,8.934,2.403,13.739,3.806
		c16.384,4.732,34.493,11.385,47.966,22.954c6.756,5.789,12.417,12.74,16.48,21.488c0.403,0.87,0.718,1.862,1.096,2.773
		C435.391,420.358,431.093,421.252,426.441,421.857z"/>
</g>
</svg>